<svg 
    viewBox="0 0 72 73"
    width="72" 
    height="73" 
    xmlns="http://www.w3.org/2000/svg" 
    xmlns:xlink="http://www.w3.org/1999/xlink" 
    xml:space="preserve" 
    overflow="hidden"><g 
    transform="translate(-32 -201)"><g><g><g><g>
    <path 
    d="M92.75 240.25 87.575 231.25 87.575 230.875C88.025 218.425 78.275 208 65.825 207.55 53.375 207.1 42.95 216.775 42.5 229.225 42.5 229.75 42.5 230.35 42.5 230.875 42.5 238 45.725 244.675 51.35 249.025L51.35 268 75.05 268 75.05 259 78.725 259C83.6 259 87.575 255.025 87.575 250.15 87.575 250.075 87.575 250.075 87.575 250L87.575 245.5 90.875 245.5C92.825 245.275 94.55 243.025 92.75 240.25ZM45.875 223.375 50 223.375 50 220.375C49.175 219.775 49.025 218.575 49.625 217.75 50.225 216.925 51.425 216.775 52.25 217.375 53.075 217.975 53.225 219.175 52.625 220 52.55 220.15 52.4 220.3 52.25 220.375L52.25 223.375 55.25 223.375 55.25 228.625C56.075 229.225 56.225 230.425 55.625 231.25 55.025 232.075 53.825 232.225 53 231.625 52.175 231.025 52.025 229.825 52.625 229 52.7 228.85 52.85 228.7 53 228.625L53 225.625 45.2 225.625C45.425 224.875 45.575 224.125 45.875 223.375ZM66.725 236.05C65.675 236.05 64.85 235.225 64.85 234.175 64.85 234.1 64.85 233.95 64.85 233.875L62.9 231.925 59.75 235.075 59.75 240.625C60.575 241.225 60.725 242.425 60.125 243.25 59.525 244.075 58.325 244.225 57.5 243.625 56.675 243.025 56.525 241.825 57.125 241 57.2 240.85 57.35 240.7 57.5 240.625L57.5 239.875 52.475 239.875 48.95 235.75C47.9 235.825 47 235.075 46.925 234.025 46.85 232.975 47.6 232.075 48.65 232 49.7 231.925 50.6 232.675 50.675 233.725 50.675 233.875 50.675 234.1 50.675 234.25L53.525 237.625 57.5 237.625 57.5 234.175 61.325 230.35 59 227.95 59 214.375C58.175 213.775 58.025 212.575 58.625 211.75 59.225 210.925 60.425 210.775 61.25 211.375 62.075 211.975 62.225 213.175 61.625 214 61.55 214.15 61.4 214.3 61.25 214.375L61.25 216.625 67.25 216.625 67.25 221.875C68.075 222.475 68.225 223.675 67.625 224.5 67.025 225.325 65.825 225.475 65 224.875 64.175 224.275 64.025 223.075 64.625 222.25 64.7 222.1 64.85 221.95 65 221.875L65 218.875 61.25 218.875 61.25 227.05 66.5 232.3C66.575 232.3 66.65 232.3 66.725 232.3 67.775 232.3 68.6 233.125 68.6 234.175 68.6 235.225 67.775 236.05 66.725 236.05ZM75.875 220.9C74.825 220.9 74 220.075 74 219.025 74 218.95 74 218.95 74 218.875L71 216.175 71 210.7C71.75 210.925 72.5 211.225 73.25 211.525L73.25 215.2 75.5 217.225C75.65 217.225 75.725 217.225 75.875 217.225 76.925 217.225 77.75 218.05 77.75 219.1 77.75 220.15 76.925 220.9 75.875 220.9Z" 
        fill-rule="nonzero" 
    />
</g></g></g></g></g></svg>