<svg viewBox = "0 0 1334 1324" width="1334" height="1324" xmlns="http://www.w3.org/2000/svg" xmlns:xlink="http://www.w3.org/1999/xlink" xml:space="preserve" overflow="hidden"><defs><filter id="fx0" x="-10%" y="-10%" width="120%" height="120%" filterUnits="userSpaceOnUse" primitiveUnits="userSpaceOnUse"><feComponentTransfer color-interpolation-filters="sRGB"><feFuncR type="discrete" tableValues="0.000000 0.000000"/><feFuncG type="discrete" tableValues="0.000000 0.000000"/><feFuncB type="discrete" tableValues="0.000000 0.000000"/><feFuncA type="linear" slope="0.400000" intercept="0.000000"/></feComponentTransfer><feGaussianBlur stdDeviation="4.237674 4.237674"/></filter><clipPath id="clip1"><rect x="1.39795" y="1.22784" width="1213" height="249.717"/></clipPath><linearGradient x1="2779.63" y1="828.529" x2="4007.97" y2="828.529" gradientUnits="userSpaceOnUse" spreadMethod="reflect" id="fill2"><stop offset="0" stop-color="#2C7BF3" stop-opacity="1"/><stop offset="0.01" stop-color="#2C7BF3" stop-opacity="1"/><stop offset="0.23" stop-color="#47C0FF" stop-opacity="1"/><stop offset="0.51" stop-color="#00E2FF" stop-opacity="1"/><stop offset="0.76" stop-color="#55E2FF" stop-opacity="1"/><stop offset="0.99" stop-color="#0A7BF2" stop-opacity="1"/><stop offset="1" stop-color="#0A7BF2" stop-opacity="1"/></linearGradient></defs><g transform="translate(-2731 -183)"><g><path d="M3311 325.5C3311 279.937 3347.94 243 3393.5 243 3439.06 243 3476 279.937 3476 325.5 3476 371.064 3439.06 408 3393.5 408 3347.94 408 3311 371.064 3311 325.5Z" fill="#00D9FF" fill-rule="evenodd" fill-opacity="1"/><path d="M0 0 0.000360892 204.629" stroke="#0A7BF2" stroke-width="10.3125" stroke-linecap="butt" stroke-linejoin="miter" stroke-miterlimit="8" stroke-opacity="1" fill="none" fill-rule="evenodd" transform="matrix(1 0 0 -1 3394 612.629)"/><path d="M0 0 198 0.000360892" stroke="#0A7BF2" stroke-width="10.3125" stroke-linecap="butt" stroke-linejoin="miter" stroke-miterlimit="8" stroke-opacity="1" fill="none" fill-rule="evenodd" transform="matrix(-0.866025 -0.5 -0.5 0.866025 3250.04 700.357)"/><path d="M0 66C-1.68054e-14 29.5492 29.5492-8.40268e-15 66-8.40268e-15 102.451-1.68054e-14 132 29.5492 132 66 132 102.451 102.451 132 66 132 29.5492 132-3.36107e-14 102.451 0 66Z" fill="#00ADFF" fill-rule="evenodd" fill-opacity="1" transform="matrix(-0.866025 -0.5 -0.5 0.866025 3114.47 541.892)"/><path d="M3526.21 547.249C3502.53 533.58 3494.46 503.242 3508.17 479.487 3521.89 455.733 3552.2 447.557 3575.87 461.226 3599.55 474.895 3607.62 505.233 3593.91 528.987 3580.19 552.742 3549.88 560.918 3526.21 547.249Z" fill="#00E2FF" fill-rule="evenodd" fill-opacity="1"/><path d="M3477.4 633.003 3526.7 547.602" stroke="#0A7BF2" stroke-width="10.3125" stroke-linecap="butt" stroke-linejoin="miter" stroke-miterlimit="8" stroke-opacity="1" fill="none" fill-rule="evenodd"/><path d="M0 49.5C-1.26461e-14 22.1619 22.2359-6.30201e-15 49.6653-6.30201e-15 77.0947-1.2604e-14 99.3306 22.1619 99.3306 49.5 99.3306 76.8381 77.0947 99 49.6653 99 22.2359 99-2.52922e-14 76.8381 0 49.5Z" fill="#00BFFF" fill-rule="evenodd" fill-opacity="1" transform="matrix(-0.5 -0.866025 -0.866025 0.5 3303.69 528.208)"/><path d="M0 0 98.612 0.000360892" stroke="#0A7BF2" stroke-width="10.3125" stroke-linecap="butt" stroke-linejoin="miter" stroke-miterlimit="8" stroke-opacity="1" fill="none" fill-rule="evenodd" transform="matrix(-0.5 -0.866025 -0.866025 0.5 3309.63 638.712)"/><path d="M0 82.5C-2.10067e-14 36.9365 36.9365-1.05034e-14 82.5-1.05034e-14 128.063-2.10067e-14 165 36.9365 165 82.5 165 128.063 128.063 165 82.5 165 36.9365 165-4.20134e-14 128.063 0 82.5Z" fill="#0096FF" fill-rule="evenodd" fill-opacity="1" transform="matrix(1 0 0 -1 3311 1427)"/><path d="M3394 1057 3394 1261.63" stroke="#0A7BF2" stroke-width="10.3125" stroke-linecap="butt" stroke-linejoin="miter" stroke-miterlimit="8" stroke-opacity="1" fill="none" fill-rule="evenodd"/><path d="M3249.86 970.17 3078.38 1069.17" stroke="#0A7BF2" stroke-width="10.3125" stroke-linecap="butt" stroke-linejoin="miter" stroke-miterlimit="8" stroke-opacity="1" fill="none" fill-rule="evenodd"/><path d="M3081.29 1071.48C3099.52 1103.05 3088.7 1143.41 3057.13 1161.64 3025.57 1179.86 2985.2 1169.05 2966.98 1137.48 2948.75 1105.91 2959.57 1065.55 2991.13 1047.32 3022.7 1029.1 3063.07 1039.91 3081.29 1071.48Z" fill="#0A7BF2" fill-rule="evenodd" fill-opacity="1"/><path d="M0 49.5C-1.26461e-14 22.1619 22.2359-6.30201e-15 49.6653-6.30201e-15 77.0947-1.2604e-14 99.3306 22.1619 99.3306 49.5 99.3306 76.8381 77.0947 99 49.6653 99 22.2359 99-2.52922e-14 76.8381 0 49.5Z" fill="#00B2FF" fill-rule="evenodd" fill-opacity="1" transform="matrix(0.5 0.866025 0.866025 -0.5 3483.16 1148.03)"/><path d="M0 0 98.612 0.000360892" stroke="#0A7BF2" stroke-width="10.3125" stroke-linecap="butt" stroke-linejoin="miter" stroke-miterlimit="8" stroke-opacity="1" fill="none" fill-rule="evenodd" transform="matrix(0.5 0.866025 0.866025 -0.5 3477.22 1037.53)"/><path d="M3260.64 1117.57C3284.32 1131.24 3292.39 1161.58 3278.68 1185.33 3264.96 1209.09 3234.65 1217.26 3210.98 1203.59 3187.3 1189.92 3179.23 1159.59 3192.94 1135.83 3206.65 1112.08 3236.97 1103.9 3260.64 1117.57Z" fill="#0096FF" fill-rule="evenodd" fill-opacity="1"/><path d="M3309.45 1031.82 3260.14 1117.22" stroke="#0A7BF2" stroke-width="10.3125" stroke-linecap="butt" stroke-linejoin="miter" stroke-miterlimit="8" stroke-opacity="1" fill="none" fill-rule="evenodd"/><g clip-path="url(#clip1)" filter="url(#fx0)" transform="translate(2790 711)"><g><g><path d="M1147.98 73.8603C1157.45 73.8603 1166.15 75.5617 1174.09 78.9645 1182.03 82.3674 1187.98 86.8305 1191.92 92.3539 1195.87 97.8774 1198.63 104.436 1200.21 112.031 1201.19 116.963 1201.69 125.593 1201.69 137.922L1201.69 234.533 1175.06 234.533 1175.06 138.958C1175.06 128.108 1174.02 119.996 1171.95 114.62 1169.88 109.245 1166.2 104.954 1160.93 101.749 1155.65 98.5431 1149.46 96.9404 1142.36 96.9404 1131.02 96.9404 1121.23 100.54 1112.99 107.741 1104.76 114.941 1100.64 128.602 1100.64 148.723L1100.64 234.533 1074.01 234.533 1074.01 77.4111 1097.97 77.4111 1097.97 99.7514C1109.51 82.4906 1126.18 73.8603 1147.98 73.8603ZM88.0856 73.8603C97.5544 73.8603 106.259 75.5617 114.199 78.9645 122.139 82.3674 128.081 86.8305 132.027 92.3539 135.972 97.8774 138.734 104.436 140.312 112.031 141.298 116.963 141.791 125.593 141.791 137.922L141.791 234.533 115.16 234.533 115.16 138.958C115.16 128.108 114.125 119.996 112.053 114.62 109.982 109.245 106.308 104.954 101.031 101.749 95.7543 98.5431 89.5651 96.9404 82.4636 96.9404 71.1208 96.9404 61.3315 100.54 53.0957 107.741 44.8598 114.941 40.7419 128.602 40.7419 148.723L40.7419 234.533 14.111 234.533 14.111 77.4111 38.0788 77.4111 38.0788 99.7514C49.6189 82.4906 66.2878 73.8603 88.0856 73.8603ZM876.083 17.6396 1048 17.6396 1048 43.2348 976.245 43.2348 976.245 234.533 947.543 234.533 947.543 43.2348 876.083 43.2348ZM674.964 17.6396 703.666 17.6396 703.666 106.705 816.404 106.705 816.404 17.6396 845.106 17.6396 845.106 234.533 816.404 234.533 816.404 132.3 703.666 132.3 703.666 234.533 674.964 234.533ZM359.271 17.6396 387.973 17.6396 387.973 234.533 359.271 234.533ZM184.768 17.6396 213.47 17.6396 213.47 208.938 320.289 208.938 320.289 234.533 184.768 234.533ZM539.953 13.9408C555.635 13.9408 569.814 16.4807 582.488 21.5602 595.163 26.6398 605.1 33.7167 612.3 42.791 619.5 51.8652 624.974 63.7011 628.722 78.2988L602.831 85.4003C599.576 74.3534 595.532 65.6738 590.699 59.3613 585.866 53.0488 578.962 47.9938 569.987 44.1965 561.011 40.3991 551.049 38.5004 540.101 38.5004 526.983 38.5004 515.64 40.4977 506.072 44.4924 496.505 48.487 488.787 53.7392 482.918 60.249 477.05 66.7587 472.488 73.9096 469.233 81.7016 463.71 95.1157 460.948 109.664 460.948 125.347 460.948 144.679 464.277 160.854 470.935 173.874 477.592 186.893 487.283 196.559 500.007 202.872 512.73 209.184 526.243 212.341 540.545 212.341 552.972 212.341 565.104 209.949 576.94 205.165 588.776 200.382 597.752 195.277 603.867 189.852L603.867 149.462 540.101 149.462 540.101 124.015 631.977 123.867 631.977 204.351C617.873 215.596 603.324 224.053 588.332 229.725 573.34 235.396 557.953 238.232 542.172 238.232 520.867 238.232 501.511 233.67 484.102 224.547 466.693 215.423 453.551 202.231 444.674 184.97 435.797 167.709 431.358 148.427 431.358 127.122 431.358 106.015 435.772 86.3127 444.6 68.0163 453.427 49.7199 466.126 36.1332 482.697 27.2563 499.267 18.3793 518.352 13.9408 539.953 13.9408Z" fill="#FF0000" fill-rule="evenodd" fill-opacity="1"/></g></g></g><path d="M3933.48 780.355C3942.94 780.355 3951.65 782.056 3959.59 785.459 3967.53 788.862 3973.47 793.325 3977.42 798.848 3981.36 804.372 3984.12 810.931 3985.7 818.525 3986.69 823.457 3987.18 832.087 3987.18 844.417L3987.18 941.027 3960.55 941.027 3960.55 845.452C3960.55 834.603 3959.51 826.49 3957.44 821.115 3955.37 815.739 3951.7 811.449 3946.42 808.243 3941.14 805.037 3934.96 803.435 3927.85 803.435 3916.51 803.435 3906.72 807.035 3898.49 814.235 3890.25 821.435 3886.13 835.096 3886.13 855.217L3886.13 941.027 3859.5 941.027 3859.5 783.905 3883.47 783.905 3883.47 806.246C3895.01 788.985 3911.68 780.355 3933.48 780.355ZM2873.58 780.355C2883.05 780.355 2891.75 782.056 2899.69 785.459 2907.63 788.862 2913.58 793.325 2917.52 798.848 2921.47 804.372 2924.23 810.931 2925.81 818.525 2926.79 823.457 2927.29 832.087 2927.29 844.417L2927.29 941.027 2900.65 941.027 2900.65 845.452C2900.65 834.603 2899.62 826.49 2897.55 821.115 2895.48 815.739 2891.8 811.449 2886.53 808.243 2881.25 805.037 2875.06 803.435 2867.96 803.435 2856.62 803.435 2846.83 807.035 2838.59 814.235 2830.35 821.435 2826.24 835.096 2826.24 855.217L2826.24 941.027 2799.61 941.027 2799.61 783.905 2823.57 783.905 2823.57 806.246C2835.11 788.985 2851.78 780.355 2873.58 780.355ZM3661.58 724.134 3833.49 724.134 3833.49 749.729 3761.74 749.729 3761.74 941.027 3733.04 941.027 3733.04 749.729 3661.58 749.729ZM3460.46 724.134 3489.16 724.134 3489.16 813.199 3601.9 813.199 3601.9 724.134 3630.6 724.134 3630.6 941.027 3601.9 941.027 3601.9 838.794 3489.16 838.794 3489.16 941.027 3460.46 941.027ZM3144.77 724.134 3173.47 724.134 3173.47 941.027 3144.77 941.027ZM2970.26 724.134 2998.96 724.134 2998.96 915.432 3105.78 915.432 3105.78 941.027 2970.26 941.027ZM3325.45 720.435C3341.13 720.435 3355.31 722.975 3367.98 728.055 3380.66 733.134 3390.59 740.211 3397.79 749.285 3404.99 758.359 3410.47 770.195 3414.22 784.793L3388.33 791.895C3385.07 780.848 3381.03 772.168 3376.19 765.856 3371.36 759.543 3364.46 754.488 3355.48 750.691 3346.51 746.893 3336.54 744.995 3325.6 744.995 3312.48 744.995 3301.13 746.992 3291.57 750.987 3282 754.981 3274.28 760.233 3268.41 766.743 3262.54 773.253 3257.98 780.404 3254.73 788.196 3249.2 801.61 3246.44 816.158 3246.44 831.841 3246.44 851.173 3249.77 867.349 3256.43 880.368 3263.09 893.388 3272.78 903.054 3285.5 909.366 3298.22 915.679 3311.74 918.835 3326.04 918.835 3338.47 918.835 3350.6 916.443 3362.43 911.659 3374.27 906.876 3383.25 901.772 3389.36 896.347L3389.36 855.957 3325.6 855.957 3325.6 830.509 3417.47 830.361 3417.47 910.846C3403.37 922.09 3388.82 930.548 3373.83 936.219 3358.83 941.89 3343.45 944.726 3327.67 944.726 3306.36 944.726 3287.01 940.164 3269.6 931.041 3252.19 921.917 3239.04 908.725 3230.17 891.464 3221.29 874.204 3216.85 854.921 3216.85 833.616 3216.85 812.509 3221.27 792.807 3230.09 774.511 3238.92 756.214 3251.62 742.628 3268.19 733.751 3284.76 724.874 3303.85 720.435 3325.45 720.435Z" fill="url(#fill2)" fill-rule="evenodd"/><text fill="#000000" fill-opacity="0" font-family="Arial,Arial_MSFontService,sans-serif" font-size="224.291" direction="ltr" writing-mode="lr-tb" x="2799.61" y="916.69">nLIGHTn</text><text fill="#BFBFBF" fill-opacity="1" font-family="Arial,Arial_MSFontService,sans-serif" font-style="normal" font-variant="normal" font-weight="400" font-stretch="normal" font-size="110" text-anchor="start" direction="ltr" writing-mode="lr-tb" unicode-bidi="normal" text-decoration="none" transform="matrix(1 0 0 1 3613.82 1062)">l  a  b  s</text></g></g></svg>