<svg viewBox="0 0 2145 1073" width="2145" height="1073" xmlns="http://www.w3.org/2000/svg" xmlns:xlink="http://www.w3.org/1999/xlink" xml:space="preserve" overflow="hidden"><defs><filter id="fx0" x="-10%" y="-10%" width="120%" height="120%" filterUnits="userSpaceOnUse" primitiveUnits="userSpaceOnUse"><feComponentTransfer color-interpolation-filters="sRGB"><feFuncR type="discrete" tableValues="0.000000 0.000000"/><feFuncG type="discrete" tableValues="0.000000 0.000000"/><feFuncB type="discrete" tableValues="0.000000 0.000000"/><feFuncA type="linear" slope="0.400000" intercept="0.000000"/></feComponentTransfer><feGaussianBlur stdDeviation="4.835175 4.835175"/></filter><clipPath id="clip1"><rect x="297" y="1237" width="2145" height="1073"/></clipPath><clipPath id="clip2"><rect x="297" y="1237" width="2145" height="1073"/></clipPath><clipPath id="clip3"><rect x="1.91492" y="1.87549" width="1632.57" height="300.677"/></clipPath><linearGradient x1="643.108" y1="1731.45" x2="2323.47" y2="1731.45" gradientUnits="userSpaceOnUse" spreadMethod="reflect" id="fill4"><stop offset="0" stop-color="#00E2FF" stop-opacity="1"/><stop offset="0.06" stop-color="#00E2FF" stop-opacity="1"/><stop offset="1" stop-color="#0A7BF2" stop-opacity="1"/></linearGradient></defs><g clip-path="url(#clip1)" transform="translate(-297 -1237)"><g clip-path="url(#clip2)"><path d="M0 49.5C-1.2604e-14 22.1619 22.1619-6.30201e-15 49.5-6.30201e-15 76.8381-1.2604e-14 99 22.1619 99 49.5 99 76.8381 76.8381 99 49.5 99 22.1619 99-2.5208e-14 76.8381 0 49.5Z" fill="#0A7BF2" fill-rule="evenodd" fill-opacity="1" transform="matrix(-1 0 0 1 473 1725)"/><path d="M0 0 98.284 0.000360892" stroke="#0A7BF2" stroke-width="10.3125" stroke-linecap="butt" stroke-linejoin="miter" stroke-miterlimit="8" stroke-opacity="1" fill="none" fill-rule="evenodd" transform="matrix(-1 0 0 1 571.284 1775)"/><path d="M654 1320.5C654 1274.94 690.937 1238 736.5 1238 782.064 1238 819 1274.94 819 1320.5 819 1366.06 782.064 1403 736.5 1403 690.937 1403 654 1366.06 654 1320.5Z" fill="#00D9FF" fill-rule="evenodd" fill-opacity="1"/><path d="M0 0 0.000360892 204.629" stroke="#0A7BF2" stroke-width="10.3125" stroke-linecap="butt" stroke-linejoin="miter" stroke-miterlimit="8" stroke-opacity="1" fill="none" fill-rule="evenodd" transform="matrix(1 0 0 -1 737 1607.63)"/><path d="M0 0 198 0.000360892" stroke="#0A7BF2" stroke-width="10.3125" stroke-linecap="butt" stroke-linejoin="miter" stroke-miterlimit="8" stroke-opacity="1" fill="none" fill-rule="evenodd" transform="matrix(-0.866025 -0.5 -0.5 0.866025 592.921 1694.43)"/><path d="M0 66C-1.68054e-14 29.5492 29.5492-8.40268e-15 66-8.40268e-15 102.451-1.68054e-14 132 29.5492 132 66 132 102.451 102.451 132 66 132 29.5492 132-3.36107e-14 102.451 0 66Z" fill="#00ADFF" fill-rule="evenodd" fill-opacity="1" transform="matrix(-0.866025 -0.5 -0.5 0.866025 457.355 1535.96)"/><path d="M869.088 1541.32C845.412 1527.65 837.337 1497.31 851.052 1473.56 864.767 1449.81 895.077 1441.63 918.753 1455.3 942.428 1468.97 950.503 1499.31 936.789 1523.06 923.074 1546.81 892.763 1554.99 869.088 1541.32Z" fill="#00E2FF" fill-rule="evenodd" fill-opacity="1"/><path d="M820.279 1627.08 869.585 1541.67" stroke="#0A7BF2" stroke-width="10.3125" stroke-linecap="butt" stroke-linejoin="miter" stroke-miterlimit="8" stroke-opacity="1" fill="none" fill-rule="evenodd"/><path d="M0 49.5C-1.26461e-14 22.1619 22.2359-6.30201e-15 49.6653-6.30201e-15 77.0947-1.2604e-14 99.3306 22.1619 99.3306 49.5 99.3306 76.8381 77.0947 99 49.6653 99 22.2359 99-2.52922e-14 76.8381 0 49.5Z" fill="#00BFFF" fill-rule="evenodd" fill-opacity="1" transform="matrix(-0.5 -0.866025 -0.866025 0.5 646.572 1522.28)"/><path d="M0 0 98.612 0.000360892" stroke="#0A7BF2" stroke-width="10.3125" stroke-linecap="butt" stroke-linejoin="miter" stroke-miterlimit="8" stroke-opacity="1" fill="none" fill-rule="evenodd" transform="matrix(-0.5 -0.866025 -0.866025 0.5 652.514 1632.78)"/><path d="M0 82.5C-2.10067e-14 36.9365 36.9365-1.05034e-14 82.5-1.05034e-14 128.063-2.10067e-14 165 36.9365 165 82.5 165 128.063 128.063 165 82.5 165 36.9365 165-4.20134e-14 128.063 0 82.5Z" fill="#0096FF" fill-rule="evenodd" fill-opacity="1" transform="matrix(1 0 0 -1 654 2307)"/><path d="M737 1937 737 2141.63" stroke="#0A7BF2" stroke-width="10.3125" stroke-linecap="butt" stroke-linejoin="miter" stroke-miterlimit="8" stroke-opacity="1" fill="none" fill-rule="evenodd"/><path d="M592.739 1850.01 421.265 1949.01" stroke="#0A7BF2" stroke-width="10.3125" stroke-linecap="butt" stroke-linejoin="miter" stroke-miterlimit="8" stroke-opacity="1" fill="none" fill-rule="evenodd"/><path d="M424.173 1951.32C442.399 1982.89 431.583 2023.25 400.016 2041.48 368.448 2059.7 328.083 2048.89 309.858 2017.32 291.633 1985.75 302.448 1945.39 334.016 1927.16 365.583 1908.94 405.948 1919.75 424.173 1951.32Z" fill="#0A7BF2" fill-rule="evenodd" fill-opacity="1"/><path d="M0 49.5C-1.26461e-14 22.1619 22.2359-6.30201e-15 49.6653-6.30201e-15 77.0947-1.2604e-14 99.3306 22.1619 99.3306 49.5 99.3306 76.8381 77.0947 99 49.6653 99 22.2359 99-2.52922e-14 76.8381 0 49.5Z" fill="#00B2FF" fill-rule="evenodd" fill-opacity="1" transform="matrix(0.5 0.866025 0.866025 -0.5 826.038 2027.87)"/><path d="M0 0 98.612 0.000360892" stroke="#0A7BF2" stroke-width="10.3125" stroke-linecap="butt" stroke-linejoin="miter" stroke-miterlimit="8" stroke-opacity="1" fill="none" fill-rule="evenodd" transform="matrix(0.5 0.866025 0.866025 -0.5 820.097 1917.37)"/><path d="M603.522 1997.41C627.198 2011.08 635.272 2041.42 621.558 2065.17 607.843 2088.93 577.532 2097.1 553.857 2083.44 530.181 2069.77 522.107 2039.43 535.821 2015.67 549.536 1991.92 579.847 1983.74 603.522 1997.41Z" fill="#0096FF" fill-rule="evenodd" fill-opacity="1"/><path d="M652.332 1911.66 603.025 1997.06" stroke="#0A7BF2" stroke-width="10.3125" stroke-linecap="butt" stroke-linejoin="miter" stroke-miterlimit="8" stroke-opacity="1" fill="none" fill-rule="evenodd"/><g clip-path="url(#clip3)" filter="url(#fx0)" transform="translate(656 1590)"><g><g><path d="M1554.93 88.9568C1566.39 88.9568 1576.94 91.0176 1586.55 95.1391 1596.17 99.2607 1603.37 104.667 1608.15 111.357 1612.93 118.047 1616.27 125.991 1618.18 135.19 1619.38 141.163 1619.98 151.617 1619.98 166.55L1619.98 283.567 1587.72 283.567 1587.72 167.804C1587.72 154.663 1586.47 144.837 1583.96 138.326 1581.45 131.815 1577 126.618 1570.61 122.736 1564.21 118.853 1556.72 116.912 1548.12 116.912 1534.38 116.912 1522.52 121.272 1512.55 129.993 1502.57 138.714 1497.58 155.26 1497.58 179.632L1497.58 283.567 1465.33 283.567 1465.33 93.2575 1494.36 93.2575 1494.36 120.317C1508.33 99.41 1528.52 88.9568 1554.93 88.9568ZM106.02 88.9568C117.489 88.9568 128.032 91.0176 137.649 95.1391 147.266 99.2607 154.464 104.667 159.242 111.357 164.021 118.047 167.366 125.991 169.277 135.19 170.472 141.163 171.069 151.617 171.069 166.55L171.069 283.567 138.813 283.567 138.813 167.804C138.813 154.663 137.559 144.837 135.05 138.326 132.542 131.815 128.091 126.618 121.7 122.736 115.309 118.853 107.812 116.912 99.2105 116.912 85.4719 116.912 73.6148 121.272 63.6394 129.993 53.664 138.714 48.6763 155.26 48.6763 179.632L48.6763 283.567 16.4204 283.567 16.4204 93.2575 45.4507 93.2575 45.4507 120.317C59.4282 99.41 79.618 88.9568 106.02 88.9568ZM1198.23 20.8611 1406.46 20.8611 1406.46 51.8625 1319.54 51.8625 1319.54 283.567 1284.78 283.567 1284.78 51.8625 1198.23 51.8625ZM926.826 20.8611 961.59 20.8611 961.59 128.739 1098.14 128.739 1098.14 20.8611 1132.9 20.8611 1132.9 283.567 1098.14 283.567 1098.14 159.74 961.59 159.74 961.59 283.567 926.826 283.567ZM489.372 20.8611 524.137 20.8611 524.137 283.567 489.372 283.567ZM250.567 20.8611 285.331 20.8611 285.331 252.566 414.713 252.566 414.713 283.567 250.567 283.567ZM735.689 16.3811C754.684 16.3811 771.858 19.4574 787.209 25.6098 802.56 31.7624 814.597 40.3341 823.318 51.3249 832.039 62.3158 838.669 76.6518 843.209 94.3327L811.849 102.934C807.907 89.5541 803.008 79.0411 797.155 71.3952 791.301 63.7494 782.938 57.6268 772.067 53.0273 761.195 48.4279 749.129 46.1282 735.868 46.1282 719.979 46.1282 706.241 48.5473 694.653 53.3857 683.064 58.2241 673.716 64.5857 666.608 72.4704 659.5 80.3552 653.974 89.0165 650.032 98.4543 643.342 114.702 639.997 132.323 639.997 151.318 639.997 174.733 644.029 194.326 652.093 210.095 660.157 225.865 671.894 237.573 687.305 245.218 702.717 252.864 719.083 256.687 736.406 256.687 751.459 256.687 766.153 253.79 780.489 247.996 794.825 242.202 805.696 236.02 813.103 229.449L813.103 180.528 735.868 180.528 735.868 149.705 847.151 149.526 847.151 247.01C830.068 260.63 812.446 270.874 794.287 277.743 776.129 284.612 757.492 288.047 738.377 288.047 712.573 288.047 689.127 282.522 668.042 271.471 646.956 260.421 631.037 244.442 620.285 223.535 609.533 202.629 604.157 179.273 604.157 153.468 604.157 127.903 609.503 104.039 620.195 81.8784 630.888 59.7174 646.269 43.261 666.339 32.509 686.409 21.7571 709.526 16.3811 735.689 16.3811Z" fill="#FF0000" fill-rule="evenodd" fill-opacity="1"/></g></g></g><path d="M2205.81 1673.84C2217.27 1673.84 2227.82 1675.9 2237.43 1680.02 2247.05 1684.14 2254.25 1689.55 2259.03 1696.24 2263.81 1702.93 2267.15 1710.87 2269.06 1720.07 2270.26 1726.04 2270.85 1736.5 2270.85 1751.43L2270.85 1868.45 2238.6 1868.45 2238.6 1752.68C2238.6 1739.54 2237.34 1729.72 2234.84 1723.21 2232.33 1716.69 2227.88 1711.5 2221.49 1707.62 2215.09 1703.73 2207.6 1701.79 2199 1701.79 2185.26 1701.79 2173.4 1706.15 2163.43 1714.87 2153.45 1723.59 2148.46 1740.14 2148.46 1764.51L2148.46 1868.45 2116.21 1868.45 2116.21 1678.14 2145.24 1678.14 2145.24 1705.2C2159.21 1684.29 2179.4 1673.84 2205.81 1673.84ZM756.9 1673.84C768.368 1673.84 778.911 1675.9 788.528 1680.02 798.145 1684.14 805.343 1689.55 810.122 1696.24 814.9 1702.93 818.245 1710.87 820.157 1720.07 821.352 1726.04 821.949 1736.5 821.949 1751.43L821.949 1868.45 789.693 1868.45 789.693 1752.68C789.693 1739.54 788.439 1729.72 785.93 1723.21 783.421 1716.69 778.971 1711.5 772.579 1707.62 766.188 1703.73 758.692 1701.79 750.09 1701.79 736.351 1701.79 724.494 1706.15 714.519 1714.87 704.544 1723.59 699.556 1740.14 699.556 1764.51L699.556 1868.45 667.3 1868.45 667.3 1678.14 696.33 1678.14 696.33 1705.2C710.308 1684.29 730.498 1673.84 756.9 1673.84ZM1849.11 1605.74 2057.33 1605.74 2057.33 1636.74 1970.42 1636.74 1970.42 1868.45 1935.66 1868.45 1935.66 1636.74 1849.11 1636.74ZM1577.7 1605.74 1612.47 1605.74 1612.47 1713.62 1749.02 1713.62 1749.02 1605.74 1783.78 1605.74 1783.78 1868.45 1749.02 1868.45 1749.02 1744.62 1612.47 1744.62 1612.47 1868.45 1577.7 1868.45ZM1140.25 1605.74 1175.02 1605.74 1175.02 1868.45 1140.25 1868.45ZM901.446 1605.74 936.211 1605.74 936.211 1837.45 1065.59 1837.45 1065.59 1868.45 901.446 1868.45ZM1386.57 1601.26C1405.56 1601.26 1422.74 1604.34 1438.09 1610.49 1453.44 1616.64 1465.48 1625.21 1474.2 1636.2 1482.92 1647.2 1489.55 1661.53 1494.09 1679.21L1462.73 1687.81C1458.79 1674.43 1453.89 1663.92 1448.03 1656.27 1442.18 1648.63 1433.82 1642.51 1422.95 1637.91 1412.07 1633.31 1400.01 1631.01 1386.75 1631.01 1370.86 1631.01 1357.12 1633.43 1345.53 1638.27 1333.94 1643.1 1324.6 1649.47 1317.49 1657.35 1310.38 1665.23 1304.85 1673.9 1300.91 1683.33 1294.22 1699.58 1290.88 1717.2 1290.88 1736.2 1290.88 1759.61 1294.91 1779.21 1302.97 1794.97 1311.04 1810.74 1322.77 1822.45 1338.19 1830.1 1353.6 1837.74 1369.96 1841.57 1387.29 1841.57 1402.34 1841.57 1417.03 1838.67 1431.37 1832.88 1445.7 1827.08 1456.58 1820.9 1463.98 1814.33L1463.98 1765.41 1386.75 1765.41 1386.75 1734.58 1498.03 1734.41 1498.03 1831.89C1480.95 1845.51 1463.33 1855.75 1445.17 1862.62 1427.01 1869.49 1408.37 1872.93 1389.26 1872.93 1363.45 1872.93 1340.01 1867.4 1318.92 1856.35 1297.84 1845.3 1281.92 1829.32 1271.16 1808.41 1260.41 1787.51 1255.04 1764.15 1255.04 1738.35 1255.04 1712.78 1260.38 1688.92 1271.07 1666.76 1281.77 1644.6 1297.15 1628.14 1317.22 1617.39 1337.29 1606.64 1360.41 1601.26 1386.57 1601.26Z" fill="url(#fill4)" fill-rule="evenodd"/><text fill="#000000" fill-opacity="0" font-family="Arial,Arial_MSFontService,sans-serif" font-size="271.666" direction="ltr" writing-mode="lr-tb" x="667.3" y="1838.97">nLIGHTn</text><text fill="#BFBFBF" fill-opacity="1" font-family="Arial,Arial_MSFontService,sans-serif" font-style="normal" font-variant="normal" font-weight="400" font-stretch="normal" font-size="183" text-anchor="start" direction="ltr" writing-mode="lr-tb" unicode-bidi="normal" text-decoration="none" transform="matrix(1 0 0 1 1775.49 2064)">labs</text></g></g></svg>